<?xml version="1.0"?>
<svg xmlns="http://www.w3.org/2000/svg" xmlns:xlink="http://www.w3.org/1999/xlink" xmlns:svgjs="http://svgjs.com/svgjs" version="1.1" width="512" height="512" x="0" y="0" viewBox="0 0 512 512.09778" style="enable-background:new 0 0 512 512" xml:space="preserve" class=""><g><path xmlns="http://www.w3.org/2000/svg" d="m469.382812 51.296875h-38.496093c-12.417969-35.265625-48.425781-56.460937-85.289063-50.207031-36.859375 6.253906-63.859375 38.148437-63.949218 75.535156v.273438c-.136719 5.894531.1875 12.363281.53125 19.226562 1.109374 22.363281 2.226562 47.484375-12.179688 57.71875-23.800781.675781-46.4375 10.449219-63.257812 27.304688l-.210938.214843-101.734375 109.074219c-.792969-.042969-1.554687-.207031-2.347656-.207031h-59.734375c-23.550782.027343-42.636719 19.113281-42.6640628 42.667969 0 4.710937 3.8203128 8.53125 8.5312498 8.53125h26.453125c4.082032 19.851562 21.546875 34.109374 41.8125 34.132812h59.734375c8.242188-.054688 16.292969-2.496094 23.175781-7.03125 25.765626 8.007812 52.332032 13.140625 79.222657 15.308594v119.722656c0 4.714844 3.820312 8.535156 8.535156 8.535156h119.464844c2.96875.015625 5.726562-1.507812 7.292969-4.027344 1.566406-2.515624 1.714843-5.667968.390624-8.320312-.855468-1.585938-20.113281-38.851562-75.949218-38.851562v-78.773438c25.855468-1.238281 51.097656-8.300781 73.839844-20.65625 15.496093-9.285156 42.667968-29.160156 50.859374-58.027344 6.3125-24.484375 4.691407-50.34375-4.625-73.847656-1.972656-5.0625-4.214843-10-6.460937-14.941406-4.613281-9.167969-8.144531-18.835938-10.519531-28.816406-3.132813-19.371094 1.105468-39.210938 11.875-55.613282 3.507812-3.671875 6.652344-7.671875 9.386718-11.945312.351563-.394532.734376-.785156 1.128907-1.179688 1.367187-1.402344 2.203125-3.242187 2.355469-5.195312 1.5625-3.042969 2.929687-6.183594 4.085937-9.40625h72.875c4.710937 0 8.535156-3.820313 8.535156-8.53125.007813-11.320313-4.480469-22.179688-12.484375-30.183594s-18.863281-12.496094-30.183594-12.484375zm-250.480468 141.859375c22.074218-21.953125 55.207031-28.4375 83.925781-16.417969-9.398437 23.742188-23.667969 45.253907-41.890625 63.144531-40.457031 40.457032-92.875 58.992188-129.757812 47.351563zm-48.1875 131.207031h-74.238282l22.117188-23.703125c11.484375 4.839844 23.835938 7.289063 36.300781 7.199219 38.179688 0 82.089844-19.957031 118.101563-55.96875 19.292968-18.960937 34.558594-41.617187 44.886718-66.621094 3.390626 2.414063 6.582032 5.097657 9.539063 8.023438 21.941406 21.96875 28.496094 54.984375 16.613281 83.667969-11.886718 28.683593-39.871094 47.390624-70.917968 47.402343zm-128-17.066406h46.34375l-15.921875 17.066406h-54.5625c3.628906-10.21875 13.296875-17.050781 24.140625-17.066406zm34.132812 51.199219c-10.84375-.011719-20.511718-6.84375-24.140625-17.066406h38.988281c12.15625 6.675781 24.816407 12.382812 37.863282 17.066406zm213.335938 136.535156h-34.132813v-17.066406c10.480469-.136719 20.898438 1.675781 30.71875 5.339844.074219 0 .152344.050781.230469.078124 7.101562 2.707032 13.667969 6.648438 19.394531 11.648438zm38.867187 0c-4.210937-6-9.304687-11.328125-15.101562-15.8125 12.972656 1.816406 25.152343 7.304688 35.113281 15.8125zm-47.402343-31.136719c-8.382813-2.023437-16.976563-3.03125-25.597657-2.996093v-76.894532c8.839844-.078125 17.40625-.28125 25.597657-.683594zm121.234374-228.089843c8 20.046874 9.4375 42.113281 4.105469 63.027343-6.546875 23.167969-29.867187 40.011719-43.199219 47.992188-27.96875 16.792969-66.710937 20.207031-116.273437 20.207031-28.960937-1.277344-57.621094-6.445312-85.207031-15.359375-.546875-.234375-1.121094-.40625-1.703125-.519531-9.859375-3.015625-19.355469-6.289063-28.160157-9.679688h140.671876c48.320312.066406 88.796874-36.5625 93.539062-84.652344 4.742188-48.089843-27.796875-91.921874-75.203125-101.296874 9.925781-16.769532 8.753906-40.300782 7.773437-60.195313-.332031-6.621094-.648437-12.867187-.511718-18.175781 0-.042969 0-.074219 0-.109375v-.144531c-.054688-30.121094 22.328125-55.574219 52.210937-59.367188 29.878907-3.792969 57.914063 15.253906 65.386719 44.433594 2.476562 9.785156 2.476562 20.03125 0 29.816406-1.46875 5.5625-3.710938 10.894531-6.664062 15.835938-1.511719 1.65625-2.925782 3.414062-4.308594 5.121093-.230469.289063-.488282.5625-.71875.851563-1.585938 2.03125-3.074219 4.101562-4.46875 6.214844-.050782.066406-.070313.152343-.121094.21875-.050781.070312-.179688.242187-.253906.359374-.078125.121094-.128906.101563-.179688.179688-13.292968 20.210938-18.472656 44.695312-14.507812 68.558594 2.617187 11.289062 6.558594 22.230468 11.742187 32.597656 2.074219 4.664062 4.199219 9.316406 6.050781 14.085938zm31.835938-150.375c.335938-2.832032.511719-5.679688.53125-8.53125-.019531-2.851563-.195312-5.703126-.53125-8.535157h34.664062c6.769532.003907 13.265626 2.675781 18.074219 7.441407 2.703125 2.722656 4.769531 6.011718 6.058594 9.625zm0 0" fill="#f2eddb" data-original="#000000" style="" class=""/><path xmlns="http://www.w3.org/2000/svg" d="m375.515625 59.832031c0 4.710938-3.820313 8.53125-8.535156 8.53125-4.710938 0-8.53125-3.820312-8.53125-8.53125 0-4.714843 3.820312-8.535156 8.53125-8.535156 4.714843 0 8.535156 3.820313 8.535156 8.535156zm0 0" fill="#f2eddb" data-original="#000000" style="" class=""/></g></svg>
